Coordinates
version=1
nRows=11
nColumns=40
inDegrees=yes

Units are S.I. units (second, meters, Newtons, ...)
If the header above contains a line with 'inDegrees', this indicates whether rotational values are in degrees (yes) or radians (no).

endheader
time	pelvis_tilt	pelvis_list	pelvis_rotation	pelvis_tx	pelvis_ty	pelvis_tz	hip_flexion_r	hip_adduction_r	hip_rotation_r	knee_angle_r	knee_angle_r_beta	ankle_angle_r	subtalar_angle_r	mtp_angle_r	hip_flexion_l	hip_adduction_l	hip_rotation_l	knee_angle_l	knee_angle_l_beta	ankle_angle_l	subtalar_angle_l	mtp_angle_l	lumbar_extension	lumbar_bending	lumbar_rotation	arm_flex_r	arm_add_r	arm_rot_r	elbow_flex_r	pro_sup_r	wrist_flex_r	wrist_dev_r	arm_flex_l	arm_add_l	arm_rot_l	elbow_flex_l	pro_sup_l	wrist_flex_l	wrist_dev_l
      0.00000000	    -88.84317692	     83.36869371	    -88.26020700	      0.83280565	      0.27361708	      0.57349860	     45.98077816	    -11.76422951	      0.00000000	     57.66148589	      1.00638278	     -5.69160011	      0.00000000	      0.00000000	     45.98077816	    -11.76422951	      0.00000000	     57.66148589	      1.00638278	     -5.69160011	      0.00000000	      0.00000000	    -25.56754213	     -0.07312121	      1.19634371	     -2.94893079	    -32.19040801	     28.82659912	    100.33482175	     87.27369579	      0.00000000	      0.00000000	      5.70227840	    -37.97242730	     44.75641630	     92.69289725	     89.19833054	      0.00000000	      0.00000000
      0.00500000	    -88.80691686	     83.39194507	    -88.31214611	      0.83282524	      0.27361664	      0.57343954	     45.84587122	    -11.19454022	      0.00000000	     57.92448379	      1.01097296	     -5.43557898	      0.00000000	      0.00000000	     45.84587122	    -11.19454022	      0.00000000	     57.92448379	      1.01097296	     -5.43557898	      0.00000000	      0.00000000	    -25.53966768	     -0.07743356	      1.21208247	     -2.95835359	    -32.19658699	     28.81400117	    100.35502980	     87.25220508	      0.00000000	      0.00000000	      5.69201020	    -37.95365652	     44.73632314	     92.68195422	     89.19397707	      0.00000000	      0.00000000
      0.01000000	    -88.80696666	     83.43260449	    -88.31303144	      0.83287721	      0.27364617	      0.57337352	     45.63380079	    -10.60889217	      0.00000000	     58.35878154	      1.01855289	     -5.20416819	      0.00000000	      0.00000000	     45.63380079	    -10.60889217	      0.00000000	     58.35878154	      1.01855289	     -5.20416819	      0.00000000	      0.00000000	    -25.49631323	     -0.07926550	      1.20177124	     -2.94196097	    -32.17902130	     28.83253911	    100.31490375	     87.15043322	      0.00000000	      0.00000000	      5.66643552	    -37.96075273	     44.71173827	     92.70785721	     89.19368820	      0.00000000	      0.00000000
      0.01500000	    -88.80515850	     83.46034604	    -88.31224345	      0.83289114	      0.27367145	      0.57331813	     45.49127200	    -10.34230571	      0.00000000	     58.66700769	      1.02393245	     -5.10714334	      0.00000000	      0.00000000	     45.49127200	    -10.34230571	      0.00000000	     58.66700769	      1.02393245	     -5.10714334	      0.00000000	      0.00000000	    -25.46469608	     -0.08090008	      1.16648442	     -2.88311822	    -32.18696622	     28.92592002	    100.29873684	     87.21119196	      0.00000000	      0.00000000	      5.58913499	    -37.95231786	     44.61185802	     92.71294038	     89.19181813	      0.00000000	      0.00000000
      0.02000000	    -88.85840093	     83.52855691	    -88.25307996	      0.83294648	      0.27364706	      0.57316904	     45.42417413	    -10.26135878	      0.00000000	     58.82113319	      1.02662244	     -5.08046325	      0.00000000	      0.00000000	     45.42417413	    -10.26135878	      0.00000000	     58.82113319	      1.02662244	     -5.08046325	      0.00000000	      0.00000000	    -25.38967543	     -0.06577144	      1.26171991	     -3.07666659	    -32.15712953	     28.69157039	    100.39808508	     87.02995499	      0.00000000	      0.00000000	      5.77624700	    -37.93339482	     44.85585374	     92.62919539	     89.19944935	      0.00000000	      0.00000000
      0.02500000	    -88.82129781	     83.38231952	    -88.28646014	      0.83284352	      0.27366262	      0.57345548	     45.30581300	    -10.11776515	      0.00000000	     59.09503120	      1.03140287	     -5.03255669	      0.00000000	      0.00000000	     45.30581300	    -10.11776515	      0.00000000	     59.09503120	      1.03140287	     -5.03255669	      0.00000000	      0.00000000	    -25.54582023	     -0.06872670	      1.19993294	     -2.96999079	    -32.16096931	     28.79737169	    100.35071259	     87.26729369	      0.00000000	      0.00000000	      5.65983276	    -37.93672533	     44.68265981	     92.68642159	     89.19673027	      0.00000000	      0.00000000
      0.03000000	    -88.84673890	     83.54845366	    -88.28116869	      0.83298300	      0.27364128	      0.57312802	     45.27711917	    -10.09313988	      0.00000000	     59.16487389	      1.03262185	     -5.02485238	      0.00000000	      0.00000000	     45.27711917	    -10.09313988	      0.00000000	     59.16487389	      1.03262185	     -5.02485238	      0.00000000	      0.00000000	    -25.36632865	     -0.06778828	      1.24504507	     -3.02155701	    -32.17309676	     28.76575130	    100.37896681	     87.11562758	      0.00000000	      0.00000000	      5.71197608	    -37.90596699	     44.76752942	     92.63693114	     89.19207801	      0.00000000	      0.00000000
      0.03500000	    -88.81621251	     83.37291828	    -88.30441941	      0.83284035	      0.27370213	      0.57344373	     45.21604238	    -10.05473997	      0.00000000	     59.31920407	      1.03531542	     -5.01385997	      0.00000000	      0.00000000	     45.21604238	    -10.05473997	      0.00000000	     59.31920407	      1.03531542	     -5.01385997	      0.00000000	      0.00000000	    -25.55105795	     -0.07247527	      1.20448854	     -2.95835987	    -32.15694149	     28.81057128	    100.34906333	     87.25976782	      0.00000000	      0.00000000	      5.63981604	    -37.92877683	     44.65354865	     92.69847319	     89.19489590	      0.00000000	      0.00000000
      0.04000000	    -88.82676021	     83.36886305	    -88.29017158	      0.83286563	      0.27369189	      0.57347064	     45.19989660	    -10.04484839	      0.00000000	     59.36067529	      1.03603923	     -5.01095030	      0.00000000	      0.00000000	     45.19989660	    -10.04484839	      0.00000000	     59.36067529	      1.03603923	     -5.01095030	      0.00000000	      0.00000000	    -25.55886887	     -0.06404858	      1.21437178	     -2.96776343	    -32.14640827	     28.78675887	    100.34594840	     87.27825374	      0.00000000	      0.00000000	      5.67365751	    -37.91713097	     44.69669097	     92.67562971	     89.19416396	      0.00000000	      0.00000000
      0.04500000	    -88.80019734	     83.35055410	    -88.30825996	      0.83282542	      0.27369965	      0.57346573	     45.18375379	    -10.03778144	      0.00000000	     59.40365217	      1.03678932	     -5.00909465	      0.00000000	      0.00000000	     45.18375379	    -10.03778144	      0.00000000	     59.40365217	      1.03678932	     -5.00909465	      0.00000000	      0.00000000	    -25.57171122	     -0.06757733	      1.20488995	     -2.96985834	    -32.14905470	     28.79378716	    100.35178235	     87.27154009	      0.00000000	      0.00000000	      5.65564410	    -37.91800799	     44.68204286	     92.69110167	     89.20225061	      0.00000000	      0.00000000
      0.05000000	    -88.82977846	     83.38490330	    -88.29300224	      0.83283246	      0.27370933	      0.57339625	     45.16795914	    -10.03031191	      0.00000000	     59.44556142	      1.03752077	     -5.00703998	      0.00000000	      0.00000000	     45.16795914	    -10.03031191	      0.00000000	     59.44556142	      1.03752077	     -5.00703998	      0.00000000	      0.00000000	    -25.53418769	     -0.06635016	      1.25006057	     -3.04595785	    -32.13264808	     28.69409326	    100.37696705	     87.24172190	      0.00000000	      0.00000000	      5.70910180	    -37.90659632	     44.75218798	     92.67789475	     89.19505222	      0.00000000	      0.00000000
